{"title":"Mike Oldfield (feat. Roger Chapman) - Shadow On The Wall","uid":6206970,"size":68613420,"categoryP":"video","categoryS":"music_videos","magnet":"?xt=urn:btih:7e66e43f4561ecb5db3b378106ad909471e4c35a&amp;dn=Mike+Oldfield+%28feat.+Roger+Chapman%29+-+Shadow+On+The+Wall&amp;tr=udp%3A%2F%2Ftracker.openbittorrent.com%3A80&amp;tr=udp%3A%2F%2Fopen.demonii.com%3A1337&amp;tr=udp%3A%2F%2Ftracker.coppersurfer.tk%3A6969&amp;tr=udp%3A%2F%2Fexodus.desync.com%3A6969","seeders":0,"leechers":1,"uploader":"Jell181155","files":1,"time":1298841558,"description":"Complete name                    : Mike Oldfield (feat. Roger Chapman) - Shadow On The Wall.mkv\nFormat                           : Matroska\nFile size                        : 65.4 MiB\nDuration                         : 3mn 6s\nOverall bit rate                 : 2 948 Kbps\nEncoded date                     : UTC 2011-02-27 20:11:39\nWriting application              : mkvmerge v3.4.0 ('Rapunzel') built on May 15 2010 09:38:20\nWriting library                  : libebml v0.8.0 + libmatroska v0.9.0\n\nVideo\nID                               : 1\nFormat                           : AVC\nFormat/Info                      : Advanced Video Codec\nFormat profile                   : &lt;a class=&quot;__cf_email__&quot; href=&quot;/cdn-cgi/l/email-protection&quot; data-cfemail=&quot;6129080609212d524f51&quot;&gt;[email&amp;#160;protected]&lt;/a&gt;&lt;script cf-hash='f9e31' type=&quot;text/javascript&quot;&gt;\n/* &lt;![CDATA[ */!function(){try{var t=&quot;currentScript&quot;in document?document.currentScript:function(){for(var t=document.getElementsByTagName(&quot;script&quot;),e=t.length;e--;)if(t[e].getAttribute(&quot;cf-hash&quot;))return t[e]}();if(t&amp;&amp;t.previousSibling){var e,r,n,i,c=t.previousSibling,a=c.getAttribute(&quot;data-cfemail&quot;);if(a){for(e=&quot;&quot;,r=parseInt(a.substr(0,2),16),n=2;a.length-n;n+=2)i=parseInt(a.substr(n,2),16)^r,e+=String.fromCharCode(i);e=document.createTextNode(e),c.parentNode.replaceChild(e,c)}}}catch(u){}}();/* ]]&gt; */&lt;/script&gt;\nFormat settings, CABAC           : Yes\nFormat settings, ReFrames        : 7 frames\nFormat settings, GOP             : M=1, N=13\nCodec ID                         : V_MPEG4/ISO/AVC\nDuration                         : 3mn 6s\nBit rate                         : 2 500 Kbps\nWidth                            : 528 pixels\nHeight                           : 480 pixels\nDisplay aspect ratio             : 4:3\nOriginal display aspect ratio    : 1.100\nFrame rate mode                  : Variable\nFrame rate                       : 29.761 fps\nColor space                      : YUV\nChroma subsampling               : 4:2:0\nBit depth                        : 8 bits\nScan type                        : Progressive\nBits/(Pixel*Frame)               : 0.331\nStream size                      : 54.2 MiB (83%)\nWriting library                  : x264 core 112\nEncoding settings                : cabac=1 / ref=8 / deblock=1:-2:-2 / analyse=0x3:0x133 / me=umh / subme=9 / psy=1 / psy_rd=1.00:0.00 / mixed_ref=1 / me_range=32 / chroma_me=1 / trellis=2 / 8x8dct=1 / cqm=0 / deadzone=21,11 / fast_pskip=1 / chroma_qp_offset=-2 / threads=9 / sliced_threads=0 / nr=0 / decimate=0 / interlaced=0 / constrained_intra=0 / bframes=6 / b_pyramid=1 / b_adapt=2 / b_bias=0 / direct=3 / weightb=1 / open_gop=0 / weightp=2 / keyint=300 / keyint_min=29 / scenecut=40 / intra_refresh=0 / rc_lookahead=40 / rc=2pass / mbtree=1 / bitrate=2500 / ratetol=1.0 / qcomp=0.60 / qpmin=3 / qpmax=51 / qpstep=4 / cplxblur=20.0 / qblur=0.5 / ip_ratio=1.40 / aq=1:1.00\nColor primaries                  : BT.601-6 525, BT.1358 525, BT.1700 NTSC, SMPTE 170M\nTransfer characteristics         : BT.709-5, BT.1361\nMatrix coefficients              : BT.601-6 525, BT.1358 525, BT.1700 NTSC, SMPTE 170M\n\nAudio\nID                               : 2\nFormat                           : AC-3\nFormat/Info                      : Audio Coding 3\nMode extension                   : CM (complete main)\nCodec ID                         : A_AC3\nDuration                         : 3mn 6s\nBit rate mode                    : Constant\nBit rate                         : 448 Kbps\nChannel(s)                       : 6 channels\nChannel positions                : Front: L C R, Side: L R, LFE\nSampling rate                    : 48.0 KHz\nBit depth                        : 16 bits\nCompression mode                 : Lossy\nStream size                      : 9.94 MiB (15%)\nLanguage                         : English\n\n","torrent":{"xt":"urn:btih:7e66e43f4561ecb5db3b378106ad909471e4c35a","amp;dn":"Mike+Oldfield+%28feat.+Roger+Chapman%29+-+Shadow+On+The+Wall","amp;tr":["udp%3A%2F%2Ftracker.openbittorrent.com%3A80","udp%3A%2F%2Fopen.demonii.com%3A1337","udp%3A%2F%2Ftracker.coppersurfer.tk%3A6969","udp%3A%2F%2Fexodus.desync.com%3A6969"],"infoHash":"7e66e43f4561ecb5db3b378106ad909471e4c35a","infoHashBuffer":{"type":"Buffer","data":[126,102,228,63,69,97,236,181,219,59,55,129,6,173,144,148,113,228,195,90]},"announce":[],"urlList":[]}}